<svg width="128" height="128" viewBox="0 0 128 128" fill="none" xmlns="http://www.w3.org/2000/svg">
<path d="M127.207 64.0003C127.471 63.9999 127.735 63.9999 128 64.0002C127.735 64.0006 127.471 64.0007 127.207 64.0003C77.2374 64.0816 64.0675 78.8457 64.0003 127.207C64.0008 127.47 64.0008 127.735 64.0004 128C64 127.735 64 127.47 64.0003 127.207C63.9191 77.2373 49.1545 64.0674 0.793136 64.0002C0.52978 64.0006 0.265403 64.0007 0 64.0003C0.265377 63.9999 0.529755 63.9998 0.793136 64.0002C50.763 63.9189 63.9329 49.1545 64.0001 0.793138C64.0814 50.763 78.8459 63.9331 127.207 64.0003Z" fill="#D9D9D9"/>
<path d="M64.0001 0.793138C63.9325 49.4094 50.6238 64.0736 0 64.0003C49.2501 63.9247 64.0742 77.1022 64.0004 128C63.9248 78.7502 77.1023 63.9265 128 64.0002C79.0071 64.0755 64.0818 51.0351 64.0001 0.793138ZM64.0001 0.793138C64.0005 0.529756 64.0004 0.265378 64 0" stroke="black"/>
</svg>
